<svg width="19" height="18" viewBox="0 0 19 18" fill="none" xmlns="http://www.w3.org/2000/svg">
<g clip-path="url(#clip0_18_4)">
<path d="M1.63716 4.1115L8.6632 10.7685C8.87106 10.9655 9.14869 11.0825 9.44235 11.0968C9.73602 11.1111 10.0248 11.0216 10.2529 10.8458L10.3431 10.7685L17.3644 4.116C17.3874 4.1985 17.4024 4.2825 17.4103 4.36875L17.4167 4.5V13.5C17.4168 13.8784 17.2659 14.2429 16.9943 14.5204C16.7227 14.7979 16.3504 14.9679 15.9521 14.9963L15.8333 15H3.16666C2.76721 15.0001 2.38246 14.8572 2.08956 14.5999C1.79666 14.3426 1.61725 13.9899 1.58729 13.6125L1.58333 13.5V4.5C1.58333 4.41 1.59124 4.323 1.60708 4.2375L1.63716 4.1115ZM15.8333 3C15.9291 3 16.0233 3.0075 16.1144 3.02325L16.249 3.0525L9.50395 9.4425L2.75658 3.051C2.84366 3.0285 2.93391 3.0135 3.02574 3.006L3.16666 3H15.8333Z" fill="#F2E9DB"/>
</g>
<defs>
<clipPath id="clip0_18_4">
<rect width="19" height="18" fill="white"/>
</clipPath>
</defs>
</svg>
